<svg viewBox="0 0 95.25074547712899 95.481" height="95.481" width="95.25074547712899" data-background-color="#ffffff" preserveAspectRatio="xMidYMid meet" id="tight-bounds" xmlns="http://www.w3.org/2000/svg" xmlns:xlink="http://www.w3.org/1999/xlink"><g><svg viewBox="0 0 95.25074547712899 95.481" height="95.481" width="95.25074547712899"><g><svg viewBox="0 0 95.25074547712899 95.481" height="95.481" width="95.25074547712899"><g id="textblocktransform"><svg viewBox="0 0 95.25074547712899 95.481" height="95.481" width="95.25074547712899" id="textblock"><g><svg viewBox="0 0 95.25074547712899 95.481" height="95.481" width="95.25074547712899"><g><svg viewBox="0 0 95.25074547712899 95.481" height="95.481" width="95.25074547712899"><g><svg xmlns="http://www.w3.org/2000/svg" xmlns:xlink="http://www.w3.org/1999/xlink" version="1.1" x="0" y="0" viewBox="5 4.707257270812988 90.07499694824219 90.29273986816406" enable-background="new 0 0 100 100" xml:space="preserve" height="95.481" width="95.25074547712899" class="icon-icon-0" data-fill-palette-color="accent" id="icon-0"><path d="M31.9 73.2c3 0 5.7-1.3 7.6-3.4 1.8 2.1 4.6 3.4 7.6 3.4 5.6 0 10.1-4.5 10.1-10.1h-5c0 2.8-2.3 5.1-5.1 5.1-2.7 0-5-2.2-5.1-4.9 0-0.1 0-0.1 0-0.2h-5c0 0.1 0 0.1 0 0.2-0.1 2.7-2.3 4.9-5.1 4.9-2.8 0-5.1-2.3-5.1-5.1h-5C21.8 68.7 26.3 73.2 31.9 73.2zM36.6 50.2L26.5 40.1 16.4 50.2l3.5 3.5 6.6-6.6 6.6 6.6L36.6 50.2zM63.6 50.2L53.5 40.1 43.4 50.2l3.5 3.5 6.6-6.6 6.6 6.6L63.6 50.2zM56.1 27.4l16.4 16.4 12.7-12.7 3.6-3.6 0 0 2.9-2.9c4.5-4.5 4.5-11.9 0-16.4-4.5-4.5-11.9-4.5-16.4 0L72.5 11l0 0 0 0-2.9-2.9c-3.4-3.4-8.3-4.2-12.5-2.6h0c0 0 0 0 0 0-0.7 0.3-1.4 0.6-2 1 0 0 0 0 0 0-0.3 0.2-0.6 0.4-0.8 0.6 0 0-0.1 0.1-0.1 0.1-0.3 0.2-0.6 0.5-0.9 0.8-0.3 0.3-0.6 0.6-0.8 0.9 0 0 0 0 0 0-0.3 0.3-0.5 0.6-0.7 1 0 0 0 0 0 0-2.9 4.5-2.4 10.6 1.5 14.5L56.1 27.4zM87.4 35.9C89.1 40.3 90 45 90 50c0 22.1-17.9 40-40 40S10 72.1 10 50c0-20.7 15.8-37.8 36-39.8 0.8-1.9 1.9-3.7 3.3-5.2C24.7 5.4 5 25.4 5 50c0 24.9 20.1 45 45 45s45-20.1 45-45c0-6.4-1.3-12.4-3.7-17.9L87.4 35.9z" fill="#ff4488" data-fill-palette-color="accent"/></svg></g></svg></g></svg></g></svg></g></svg></g><g/></svg></g><defs/></svg>